<svg xmlns="http://www.w3.org/2000/svg" width="215.275" height="184.238" viewBox="0 0 215.275 184.238"><g transform="translate(134.426 -49.168) rotate(65)"><g transform="translate(0)"><path d="M18.989,182.943C42.037,178.726,58.163,121.662,64,60.626s.212-72.417-16.82-49.984C37.649,26.863,1.29,65.06,2,95.448c.854,36.755-4.722,75.061-.217,80.392s1.173-10.329,8.258-9.749c3.226,2.987-1.3,15.794.293,16.36A16.8,16.8,0,0,0,18.989,182.943Z" transform="translate(93.476 168.545) rotate(-130)" fill="#082a38"/><path d="M30.224,65.591c.795,1.1,1.938.941,3.059-.414,0,0,24.562-28.07,35.065-44.357S78.729-.435,75.294.029c0,0-17.234,13.252-34.986,15.653S1.331,5.185,1.331,5.185C-1.753,5.6.878,18.329,5.591,29.658c.406.978,1,2.318,1.658,3.745C13.733,47.393,30.224,65.591,30.224,65.591Z" transform="translate(52.77 172.93) rotate(-133)" fill="#082a38"/><path d="M36.916.975c.953-1.162,1.925-1.294,2.6-.352,0,0,13.974,18.545,19.484,30.558s5.477,17.1,2.557,17.5c0,0-12.141-7.729-27.234-5.685S1.186,56.855,1.186,56.855c-2.92.4.1-12.573,3.129-16.264Z" transform="translate(147.265 45.626) rotate(48)" fill="#082a38" opacity="0.26"/><path d="M18.589,66.587c.889,1.115,2.136.96,3.336-.415,0,0,24.517-27.309,35.7-43.846S70.4-.442,66.659.024c0,0-18.6,13.44-37.956,15.85s-25.669,13.2-25.669,13.2c-3.746.466-3.918,15.394-1.1,18.937Z" transform="translate(140.137 116.037) rotate(-139)" fill="#082a38"/><path d="M46.32,1.224C47.516-.234,48.736-.4,49.583.782c0,0,17.534,23.269,24.448,38.343S80.9,60.582,77.24,61.078c0,0-15.234-9.7-34.172-7.133S1.488,71.339,1.488,71.339c-3.664.5.13-15.776,3.926-20.407Z" transform="translate(166.448 19.506) rotate(48)" fill="#082a38"/></g><line x1="8" y2="8" transform="translate(14.378 113.225)" opacity="0.18" stroke="#707070" stroke-linecap="round" stroke-width="0.5" fill="none"/><line x1="13" y2="13" transform="translate(25.378 112.225)" opacity="0.18" stroke="#707070" stroke-linecap="round" stroke-width="0.5" fill="none"/><line x1="10" y2="10" transform="translate(20.378 113.225)" opacity="0.18" stroke="#707070" stroke-linecap="round" stroke-width="0.5" fill="none"/><line x1="17" y2="17" transform="translate(31.378 112.225)" opacity="0.18" stroke="#707070" stroke-linecap="round" stroke-width="0.5" fill="none"/><line x1="20" y2="20" transform="translate(38.378 113.225)" opacity="0.18" stroke="#707070" stroke-linecap="round" stroke-width="0.5" fill="none"/><line x1="24" y2="24" transform="translate(41.378 114.225)" opacity="0.18" stroke="#707070" stroke-linecap="round" stroke-width="0.5" fill="none"/><line x1="21" y2="21" transform="translate(45.378 121.225)" opacity="0.18" stroke="#707070" stroke-linecap="round" stroke-width="0.5" fill="none"/><line x1="17" y2="17" transform="translate(48.378 131.225)" opacity="0.18" stroke="#707070" stroke-linecap="round" stroke-width="0.5" fill="none"/><line x1="13" y2="13" transform="translate(51.378 142.225)" opacity="0.18" stroke="#707070" stroke-linecap="round" stroke-width="0.5" fill="none"/><line x1="8" y2="7" transform="translate(53.378 153.225)" opacity="0.18" stroke="#707070" stroke-linecap="round" stroke-width="0.5" fill="none"/><line x1="6" y2="6" transform="translate(6.378 114.225)" opacity="0.18" stroke="#707070" stroke-linecap="round" stroke-width="0.5" fill="none"/></g></svg>