<svg xmlns="http://www.w3.org/2000/svg" width="208.611" height="199.775" viewBox="0 0 208.611 199.775"><g transform="translate(-1354.442 159.515) rotate(-71)"><path d="M45.293,7.649C68.341,11.866,84.467,68.929,90.3,129.965s.213,72.417-16.82,49.984c-9.53-16.221-45.889-54.417-45.183-84.806.854-36.755-4.722-75.061-.217-80.392S29.256,25.08,36.341,24.5c3.226-2.987-1.305-15.794.293-16.36A16.8,16.8,0,0,1,45.293,7.649Z" transform="translate(391.492 1341.46) rotate(-50)" fill="#30647a"/><path d="M39.854,8.785c.795-1.1,1.938-.941,3.059.414,0,0,24.562,28.07,35.065,44.357s10.382,21.256,6.947,20.791c0,0-17.234-13.252-34.986-15.653s-38.977,10.5-38.977,10.5c-3.084-.417-.453-13.144,4.26-24.473.406-.978,1-2.318,1.658-3.745C23.362,26.984,39.854,8.785,39.854,8.785Z" transform="translate(534.145 1404.523) rotate(-47)" fill="#30647a"/><path d="M37.644,56.224c.953,1.162,1.925,1.294,2.6.352,0,0,13.974-18.545,19.484-30.558s5.477-17.1,2.557-17.5c0,0-12.141,7.729-27.234,5.685S1.914.345,1.914.345c-2.92-.4.1,12.573,3.129,16.264Z" transform="translate(543.608 1358.633) rotate(132)" fill="#30647a" opacity="0.26"/><path d="M45.429,7c.889-1.115,2.136-.96,3.336.415,0,0,24.517,27.309,35.7,43.846s12.78,22.767,9.034,22.3c0,0-18.6-13.44-37.956-15.85s-25.669-13.2-25.669-13.2c-3.746-.466-3.918-15.394-1.1-18.937Z" transform="translate(439.206 1353.384) rotate(-41)" fill="#30647a"/><path d="M47.049,70.462c1.2,1.458,2.415,1.623,3.263.442,0,0,17.534-23.269,24.448-38.343S81.632,11.1,77.968,10.608c0,0-15.234,9.7-34.172,7.133S2.216.347,2.216.347c-3.664-.5.13,15.776,3.926,20.407Z" transform="translate(535.19 1342.207) rotate(132)" fill="#30647a"/><line x2="8" y2="8" transform="translate(625.5 1388.5)" opacity="0.18" stroke="#707070" stroke-linecap="round" stroke-width="0.5" fill="none"/><line x2="13" y2="13" transform="translate(609.5 1387.5)" opacity="0.18" stroke="#707070" stroke-linecap="round" stroke-width="0.5" fill="none"/><line x2="10" y2="10" transform="translate(617.5 1388.5)" opacity="0.18" stroke="#707070" stroke-linecap="round" stroke-width="0.5" fill="none"/><line x2="17" y2="17" transform="translate(599.5 1387.5)" opacity="0.18" stroke="#707070" stroke-linecap="round" stroke-width="0.5" fill="none"/><line x2="20" y2="20" transform="translate(589.5 1388.5)" opacity="0.18" stroke="#707070" stroke-linecap="round" stroke-width="0.5" fill="none"/><line x2="24" y2="24" transform="translate(582.5 1389.5)" opacity="0.18" stroke="#707070" stroke-linecap="round" stroke-width="0.5" fill="none"/><line x2="21" y2="21" transform="translate(581.5 1396.5)" opacity="0.18" stroke="#707070" stroke-linecap="round" stroke-width="0.5" fill="none"/><line x2="17" y2="17" transform="translate(582.5 1406.5)" opacity="0.18" stroke="#707070" stroke-linecap="round" stroke-width="0.5" fill="none"/><line x2="13" y2="13" transform="translate(583.5 1417.5)" opacity="0.18" stroke="#707070" stroke-linecap="round" stroke-width="0.5" fill="none"/><line x2="8" y2="7" transform="translate(586.5 1428.5)" opacity="0.18" stroke="#707070" stroke-linecap="round" stroke-width="0.5" fill="none"/><line x2="6" y2="6" transform="translate(635.5 1389.5)" opacity="0.18" stroke="#707070" stroke-linecap="round" stroke-width="0.5" fill="none"/></g></svg>