<svg xmlns="http://www.w3.org/2000/svg" xmlns:xlink="http://www.w3.org/1999/xlink" width="686.195" height="686.761" viewBox="0 0 686.195 686.761"><defs><linearGradient id="a" x1="0.479" y1="-0.087" x2="0.475" y2="0.681" gradientUnits="objectBoundingBox"><stop offset="0" stop-color="#fff" stop-opacity="0"/><stop offset="0.479" stop-color="#c2c2c2" stop-opacity="0.149"/><stop offset="1" stop-color="gray"/></linearGradient></defs><g transform="matrix(0.985, 0.174, -0.174, 0.985, -94.393, -1006.898)"><g transform="matrix(0.485, -0.875, 0.875, 0.485, 330.584, 1348.371)" fill="#fff"><path d="M 245 489.5 C 228.4106903076172 489.5 211.8318786621094 487.8287353515625 195.7241821289063 484.5326232910156 C 180.026123046875 481.3203125 164.5850067138672 476.5271301269531 149.8297424316406 470.2861938476563 C 135.3421936035156 464.1585083007813 121.3689346313477 456.5740661621094 108.2980651855469 447.7435607910156 C 95.35124969482422 438.9967956542969 83.17662811279297 428.9518737792969 72.11237335205078 417.8876342773438 C 61.04812622070313 406.8233642578125 51.00318908691406 394.6487426757813 42.25643920898438 381.7019348144531 C 33.42593765258789 368.6310729980469 25.84149932861328 354.6578063964844 19.71381187438965 340.1702575683594 C 13.47287464141846 325.4150085449219 8.6796875 309.973876953125 5.467374801635742 294.2758178710938 C 2.171250104904175 278.1681213378906 0.5 261.5893249511719 0.5 245 C 0.5 227.3053741455078 0.7680624723434448 217.476806640625 1.425250053405762 211.0755615234375 C 1.784000039100647 207.5816802978516 2.266812562942505 205.1136169433594 2.901249885559082 203.5303039550781 C 3.73924994468689 201.4392547607422 4.653437614440918 201.4392547607422 4.953875064849854 201.4392547607422 C 6.173624992370605 201.4392547607422 7.909062385559082 202.7719421386719 10.41531276702881 205.6334381103516 C 12.85031223297119 208.4135589599609 15.77237510681152 212.3444366455078 19.47175025939941 217.3211822509766 C 44.66343688964844 251.2108154296875 103.6576843261719 330.5741882324219 235.1729431152344 332.2337341308594 C 236.5220031738281 332.2508239746094 237.8865661621094 332.2594299316406 239.2288818359375 332.2594299316406 C 364.2188110351563 332.2594299316406 429.3290710449219 257.9380493164063 460.619384765625 222.2210540771484 C 465.8495483398438 216.2509918212891 470.3664245605469 211.0950622558594 474.0289306640625 207.5655670166016 C 477.872314453125 203.8617553710938 480.5862426757813 202.1366882324219 482.570068359375 202.1366882324219 C 483.8001098632813 202.1366882324219 484.8096313476563 202.830810546875 485.6563110351563 204.2586822509766 C 486.5866394042969 205.8276214599609 487.3158264160156 208.2436218261719 487.8855590820313 211.6447448730469 C 489.0021362304688 218.3096923828125 489.5 228.5968170166016 489.5 245 C 489.5 261.5893249511719 487.8287353515625 278.1681213378906 484.5326232910156 294.2758178710938 C 481.3203125 309.973876953125 476.5271301269531 325.4150085449219 470.2861938476563 340.1702575683594 C 464.1585083007813 354.6578063964844 456.5740661621094 368.6310729980469 447.7435607910156 381.7019348144531 C 438.996826171875 394.6487426757813 428.9518737792969 406.8233642578125 417.8876342773438 417.8876342773438 C 406.8233642578125 428.9518737792969 394.6487426757813 438.9967956542969 381.7019348144531 447.7435607910156 C 368.6310729980469 456.5740661621094 354.6578063964844 464.1585083007813 340.1702575683594 470.2861938476563 C 325.4150085449219 476.5271301269531 309.973876953125 481.3203125 294.2758178710938 484.5326232910156 C 278.1681213378906 487.8287353515625 261.5893249511719 489.5 245 489.5 Z" stroke="none"/><path d="M 245 489 C 261.5557556152344 489 278.1007995605469 487.3321228027344 294.1755676269531 484.0427551269531 C 309.84130859375 480.8371276855469 325.2506103515625 476.0537414550781 339.9754943847656 469.82568359375 C 354.4333190917969 463.7105712890625 368.3778686523438 456.1416320800781 381.4219970703125 447.3292541503906 C 394.3424377441406 438.6003112792969 406.4923095703125 428.5758056640625 417.5340576171875 417.5340576171875 C 428.5758056640625 406.4923095703125 438.6003112792969 394.3424377441406 447.3292541503906 381.4219970703125 C 456.1416320800781 368.3778686523438 463.7105712890625 354.4333190917969 469.82568359375 339.9754943847656 C 476.0537414550781 325.2506103515625 480.8371276855469 309.84130859375 484.0427551269531 294.1755676269531 C 487.3321228027344 278.1007995605469 489 261.5557556152344 489 245 C 489 228.6256256103516 488.5041809082031 218.3639984130859 487.3924255371094 211.7273712158203 C 486.8330688476563 208.3882446289063 486.12451171875 206.0286254882813 485.2261962890625 204.5136871337891 C 484.2286376953125 202.8312530517578 483.2325744628906 202.6366882324219 482.570068359375 202.6366882324219 C 480.7491760253906 202.6366882324219 478.0688781738281 204.3666839599609 474.3759460449219 207.9255676269531 C 470.7286376953125 211.4404296875 466.2182006835938 216.5890045166016 460.9955139160156 222.5505676269531 C 429.6566162109375 258.3228759765625 364.4454956054688 332.7594299316406 239.2288818359375 332.7594299316406 C 237.8828125 332.7594299316406 236.5160675048828 332.7508239746094 235.1666259765625 332.7337341308594 C 103.4039993286133 331.0709838867188 44.30631256103516 251.5684967041016 19.07043838500977 217.6194305419922 C 15.37775039672852 212.6517486572266 12.46100044250488 208.7279357910156 10.03918743133545 205.9628753662109 C 7.700687408447266 203.2929992675781 5.989749908447266 201.9392547607422 4.953875064849854 201.9392547607422 C 4.737124919891357 201.9392547607422 4.07756233215332 201.9392547607422 3.365437507629395 203.71630859375 C 2.748500108718872 205.2558135986328 2.276562452316284 207.6797485351563 1.922687530517578 211.1266174316406 C 1.267312526702881 217.5098114013672 1 227.3236236572266 1 245 C 1 261.5557556152344 2.667875051498413 278.1007995605469 5.957250118255615 294.1755676269531 C 9.162875175476074 309.84130859375 13.94624996185303 325.2506103515625 20.17431259155273 339.9754943847656 C 26.28943824768066 354.4333190917969 33.85837554931641 368.3778686523438 42.67074966430664 381.4219970703125 C 51.39968872070313 394.3424377441406 61.42418670654297 406.4923095703125 72.46593475341797 417.5340576171875 C 83.5076904296875 428.5758056640625 95.65756225585938 438.6003112792969 108.5780029296875 447.3292541503906 C 121.6221237182617 456.1416320800781 135.5666809082031 463.7105712890625 150.0245056152344 469.82568359375 C 164.7493743896484 476.0537414550781 180.15869140625 480.8371276855469 195.8244323730469 484.0427551269531 C 211.8991851806641 487.3321228027344 228.4442443847656 489 245 489 M 245 490 C 109.6902465820313 490 0 380.3097534179688 0 245 C 0 213.1463775634766 0.8231016993522644 200.9392242431641 4.953851222991943 200.9392242431641 C 18.36995124816895 200.9392242431641 66.69467163085938 329.6076965332031 235.1792449951172 331.7338256835938 C 236.5242156982422 331.7507934570313 237.897705078125 331.7594299316406 239.2288513183594 331.7594299316406 C 405.4635314941406 331.7594299316406 464.2027282714844 201.6367034912109 482.570068359375 201.6367034912109 C 488.1531982421875 201.6367034912109 490 213.6501617431641 490 245 C 490 380.3097534179688 380.3097534179688 490 245 490 Z" stroke="none" fill="#707070"/></g><g transform="matrix(0.485, -0.875, 0.875, 0.485, 330.584, 1348.371)" opacity="0.12" fill="url(#a)"><path d="M 245 489.5 C 228.4106903076172 489.5 211.8318786621094 487.8287658691406 195.7241821289063 484.5326232910156 C 180.026123046875 481.3203125 164.5850067138672 476.5271301269531 149.8297424316406 470.2861938476563 C 135.3421936035156 464.1585083007813 121.3689346313477 456.5740661621094 108.2980651855469 447.7435607910156 C 95.35124969482422 438.996826171875 83.17662811279297 428.9518737792969 72.11237335205078 417.8876342773438 C 61.04812622070313 406.8233947753906 51.00318908691406 394.6487426757813 42.25643920898438 381.7019348144531 C 33.42593765258789 368.6310729980469 25.84149932861328 354.6578063964844 19.71381187438965 340.1702575683594 C 13.47287464141846 325.4150085449219 8.6796875 309.973876953125 5.467374801635742 294.2758178710938 C 2.171250104904175 278.1681213378906 0.5 261.5893249511719 0.5 245 C 0.5 228.7336273193359 2.428750038146973 212.3661346435547 6.232625007629395 196.3520660400391 C 9.879375457763672 180.99951171875 15.29362487792969 165.7770080566406 22.32493782043457 151.1074371337891 C 29.10406303405762 136.9639434814453 37.44593811035156 123.205192565918 47.11881256103516 110.2134399414063 C 56.52206420898438 97.58381652832031 67.23274993896484 85.6092529296875 78.95349884033203 74.6221923828125 C 90.47068786621094 63.82594299316406 102.9902496337891 53.95619201660156 116.1642532348633 45.28719329833984 C 129.2733764648438 36.66088104248047 143.0406188964844 29.21637916564941 157.0836181640625 23.16056823730469 C 171.2416839599609 17.05506706237793 185.6949310302734 12.35538005828857 200.0419311523438 9.19194221496582 C 214.6836853027344 5.963442325592041 229.2611846923828 4.326505184173584 243.3694305419922 4.326505184173584 C 244.7174987792969 4.326505184173584 246.0241851806641 4.340817451477051 247.3643188476563 4.370192527770996 C 261.6289367675781 4.683067321777344 276.2945556640625 6.543067455291748 290.9536743164063 9.898567199707031 C 305.3806762695313 13.20088005065918 319.8521728515625 17.96219253540039 333.966064453125 24.05006790161133 C 348.0245666503906 30.1141300201416 361.758056640625 37.50694274902344 374.7850036621094 46.02312850952148 C 387.9235534667969 54.6123161315918 400.3753051757813 64.36581420898438 411.79443359375 75.0126953125 C 423.4454956054688 85.87581634521484 434.072509765625 97.71844482421875 443.3802490234375 110.2115707397461 C 452.9692993164063 123.0821914672852 461.2294921875 136.7421875 467.9313659667969 150.8120727539063 C 474.8861389160156 165.4128112792969 480.2385559082031 180.6190643310547 483.8399963378906 196.0084381103516 C 487.5956726074219 212.05712890625 489.5 228.5403137207031 489.5 245 C 489.5 261.5893249511719 487.8287353515625 278.1681213378906 484.5326232910156 294.2758178710938 C 481.3203125 309.973876953125 476.5271301269531 325.4150085449219 470.2861938476563 340.1702575683594 C 464.1585083007813 354.6578063964844 456.5740661621094 368.6310729980469 447.7435607910156 381.7019348144531 C 438.996826171875 394.6487426757813 428.9518737792969 406.8233947753906 417.8876342773438 417.8876342773438 C 406.8233642578125 428.9518737792969 394.6487426757813 438.996826171875 381.7019348144531 447.7435607910156 C 368.6310729980469 456.5740661621094 354.6578063964844 464.1585083007813 340.1702575683594 470.2861938476563 C 325.4150085449219 476.5271301269531 309.973876953125 481.3203125 294.2758178710938 484.5326232910156 C 278.1681213378906 487.8287658691406 261.5893249511719 489.5 245 489.5 Z" stroke="none"/><path d="M 243.3694305419922 4.826507568359375 C 229.2973022460938 4.826507568359375 214.7560119628906 6.459503173828125 200.1495666503906 9.680206298828125 C 185.8334350585938 12.83682250976563 171.4106140136719 17.52676391601563 157.2815551757813 23.61968994140625 C 143.2653198242188 29.66400146484375 129.5238647460938 37.09451293945313 116.4390563964844 45.70489501953125 C 103.288818359375 54.35824584960938 90.7918701171875 64.210205078125 79.29537963867188 74.98699951171875 C 67.59625244140625 85.95382690429688 56.90542602539063 97.9061279296875 47.51986694335938 110.5119934082031 C 37.86618041992188 123.4779968261719 29.54107666015625 137.2090148925781 22.7757568359375 151.3235778808594 C 15.7598876953125 165.9609985351563 10.35763549804688 181.1496276855469 6.71905517578125 196.4676208496094 C 2.9241943359375 212.4438171386719 1 228.7724914550781 1 245 C 1 261.5557556152344 2.667877197265625 278.100830078125 5.957244873046875 294.1755676269531 C 9.162872314453125 309.84130859375 13.94625854492188 325.2506103515625 20.17431640625 339.9755249023438 C 26.2894287109375 354.4333190917969 33.85836791992188 368.3778686523438 42.67074584960938 381.4219970703125 C 51.39968872070313 394.3424377441406 61.4241943359375 406.4923095703125 72.4659423828125 417.5340576171875 C 83.5076904296875 428.5758056640625 95.65756225585938 438.6003112792969 108.5780029296875 447.3292541503906 C 121.6221313476563 456.1416320800781 135.5666809082031 463.7105712890625 150.0245056152344 469.82568359375 C 164.7493896484375 476.0537414550781 180.15869140625 480.8371276855469 195.8244323730469 484.0427551269531 C 211.8992004394531 487.3321228027344 228.4442443847656 489 245 489 C 261.5557556152344 489 278.100830078125 487.3321228027344 294.1755676269531 484.0427551269531 C 309.84130859375 480.8371276855469 325.2506103515625 476.0537414550781 339.9754943847656 469.82568359375 C 354.4333190917969 463.7105712890625 368.3778686523438 456.1416320800781 381.4219970703125 447.3292541503906 C 394.3424377441406 438.6003112792969 406.4923095703125 428.5758056640625 417.5340576171875 417.5340576171875 C 428.5758056640625 406.4923095703125 438.6003112792969 394.3424377441406 447.3292541503906 381.4219970703125 C 456.1416320800781 368.3778686523438 463.7105712890625 354.4333190917969 469.82568359375 339.9755249023438 C 476.0537414550781 325.2506103515625 480.8371276855469 309.84130859375 484.0427551269531 294.1755676269531 C 487.3321228027344 278.100830078125 489 261.5557556152344 489 245 C 489 228.5786437988281 487.1001281738281 212.1338195800781 483.3531188964844 196.1223754882813 C 479.7598876953125 180.7677612304688 474.4193725585938 165.5955810546875 467.4800109863281 151.0270690917969 C 460.7921142578125 136.9866333007813 452.5489501953125 123.3548278808594 442.9793090820313 110.51025390625 C 433.689453125 98.04119873046875 423.0826416015625 86.22113037109375 411.4534301757813 75.37838745117188 C 400.0552368164063 64.75094604492188 387.6261291503906 55.0152587890625 374.5114440917969 46.44161987304688 C 361.5083618164063 37.94107055664063 347.80029296875 30.56195068359375 333.76806640625 24.50918579101563 C 319.6820068359375 18.43325805664063 305.2396240234375 13.6815185546875 290.8421325683594 10.38595581054688 C 276.2159423828125 7.037994384765625 261.5841674804688 5.18218994140625 247.3533172607422 4.87005615234375 C 246.0164947509766 4.84075927734375 244.71337890625 4.826507568359375 243.3694305419922 4.826507568359375 M 243.3694458007813 3.826507568359375 C 244.7099151611328 3.826507568359375 246.0387268066406 3.84100341796875 247.375244140625 3.870330810546875 C 363.2359924316406 6.41156005859375 490 109.6902465820313 490 245 C 490 380.3097534179688 380.3097534179688 490 245 490 C 109.6902465820313 490 0 380.3097534179688 0 245 C 0 111.2511291503906 128.5075378417969 3.826507568359375 243.3694458007813 3.826507568359375 Z" stroke="none" fill="#707070"/></g></g></svg>