<svg xmlns="http://www.w3.org/2000/svg" width="79.451" height="85.328" viewBox="0 0 79.451 85.328"><g transform="translate(-969.142 -364.52) rotate(-21)"><path d="M12.757,6.194a3,3,0,0,1,5.486,0l10.89,24.591A3,3,0,0,1,26.39,35H4.61a3,3,0,0,1-2.743-4.215Z" transform="matrix(0.407, 0.914, -0.914, 0.407, 821.183, 711.222)" fill="#fff"/><path d="M12.757,6.194a3,3,0,0,1,5.486,0l10.89,24.591A3,3,0,0,1,26.39,35H4.61a3,3,0,0,1-2.743-4.215Z" transform="translate(754.208 739.542) rotate(-66)" fill="#fff"/><path d="M12.757,6.194a3,3,0,0,1,5.486,0l10.89,24.591A3,3,0,0,1,26.39,35H4.61a3,3,0,0,1-2.743-4.215Z" transform="translate(778 701)" fill="#fff"/><path d="M12.757,6.194a3,3,0,0,1,5.486,0l10.89,24.591A3,3,0,0,1,26.39,35H4.61a3,3,0,0,1-2.743-4.215Z" transform="translate(830.559 762.346) rotate(141)" fill="#fff"/><path d="M12.757,6.194a3,3,0,0,1,5.486,0l10.89,24.591A3,3,0,0,1,26.39,35H4.61a3,3,0,0,1-2.743-4.215Z" transform="translate(781.533 781.854) rotate(-141)" fill="#fff"/><circle cx="11.5" cy="11.5" r="11.5" transform="translate(783 730)" fill="#fff"/></g></svg>