<svg xmlns="http://www.w3.org/2000/svg" xmlns:xlink="http://www.w3.org/1999/xlink" width="1920" height="1392.327" viewBox="0 0 1920 1392.327"><defs><linearGradient id="a" x1="0.586" y1="0.053" x2="0.588" y2="0.925" gradientUnits="objectBoundingBox"><stop offset="0" stop-color="#1a6a8b"/><stop offset="0.187" stop-color="#114d67"/><stop offset="1" stop-color="#2f3437"/></linearGradient></defs><path d="M0,87.245S357.348-44.493,580.032-44.493c76.573,0,91.516,42.14,69.149,40.2s-49.4,7.925-49.4,7.925-34.38,17.524,0,46.5c34.552,29.116,145.636,23.293,228.895,13.985,55.641-6.221,129.093-13.825,181.617-29.44C1130.623-12.982,1348.477-87.972,1440.635-48c9.151,11.562-25.69,17.809-42.524,37.8-100.8,119.7,170.434,60.326,350.027,60.326S1919.951,0,1919.951,0V1333H0Z" transform="translate(0 59.327)" fill="url(#a)"/></svg>